	<svg width="256" height="256" viewBox="0 0 256 256" xmlns="http://www.w3.org/2000/svg">
  <defs>
    <linearGradient id="cloudGradient" x1="0%" y1="0%" x2="100%" y2="100%">
      <stop offset="0%" style="stop-color:#4A90E2;stop-opacity:1" />
      <stop offset="100%" style="stop-color:#00CFFF;stop-opacity:1" />
    </linearGradient>
    <linearGradient id="nodeGradient" x1="0%" y1="0%" x2="100%" y2="100%">
      <stop offset="0%" style="stop-color:#50E3C2;stop-opacity:1" />
      <stop offset="100%" style="stop-color:#00D084;stop-opacity:1" />
    </linearGradient>
  </defs>

  <!-- 中心云朵 -->
  <g transform="translate(128,100)">
    <circle cx="-20" cy="-10" r="25" fill="url(#cloudGradient)" />
    <circle cx="0" cy="-25" r="30" fill="url(#cloudGradient)" />
    <circle cx="20" cy="-15" r="25" fill="url(#cloudGradient)" />
    <circle cx="-15" cy="5" r="20" fill="url(#cloudGradient)" />
    <circle cx="15" cy="5" r="20" fill="url(#cloudGradient)" />
    <circle cx="0" cy="10" r="22" fill="url(#cloudGradient)" />
  </g>

  <!-- 数据节点 -->
  <circle cx="60" cy="60" r="20" fill="url(#nodeGradient)" />
  <circle cx="196" cy="60" r="20" fill="url(#nodeGradient)" />
  <circle cx="60" cy="196" r="20" fill="url(#nodeGradient)" />
  <circle cx="196" cy="196" r="20" fill="url(#nodeGradient)" />

  <!-- 连接线 -->
  <line x1="60" y1="60" x2="128" y2="100" stroke="#4A90E2" stroke-width="3" stroke-dasharray="5,5" />
  <line x1="196" y1="60" x2="128" y2="100" stroke="#4A90E2" stroke-width="3" stroke-dasharray="5,5" />
  <line x1="60" y1="196" x2="128" y2="100" stroke="#4A90E2" stroke-width="3" stroke-dasharray="5,5" />
  <line x1="196" y1="196" x2="128" y2="100" stroke="#4A90E2" stroke-width="3" stroke-dasharray="5,5" />

  <!-- 箭头表示数据流向 -->
  <polygon points="85,70 90,75 80,75" fill="#00CFFF" />
  <polygon points="171,70 166,75 176,75" fill="#00CFFF" />
  <polygon points="85,180 90,175 80,175" fill="#00CFFF" />
  <polygon points="171,180 166,175 176,175" fill="#00CFFF" />

  <!-- 数据符号 -->
  <rect x="52" y="52" width="16" height="16" rx="2" fill="white" opacity="0.8" />
  <rect x="188" y="52" width="16" height="16" rx="2" fill="white" opacity="0.8" />
  <rect x="52" y="188" width="16" height="16" rx="2" fill="white" opacity="0.8" />
  <rect x="188" y="188" width="16" height="16" rx="2" fill="white" opacity="0.8" />
  <line x1="55" y1="58" x2="65" y2="58" stroke="#00D084" stroke-width="2" />
  <line x1="191" y1="58" x2="201" y2="58" stroke="#00D084" stroke-width="2" />
  <line x1="55" y1="194" x2="65" y2="194" stroke="#00D084" stroke-width="2" />
  <line x1="191" y1="194" x2="201" y2="194" stroke="#00D084" stroke-width="2" />
</svg>
